<svg width="29" height="9" viewBox="0 0 29 9" fill="none" xmlns="http://www.w3.org/2000/svg">
<path d="M4.06779 8.09621C3.33179 8.09621 2.68379 7.95221 2.12379 7.66421C1.57179 7.37621 1.14379 6.98421 0.839789 6.48821C0.535789 5.98421 0.383789 5.41221 0.383789 4.77221C0.383789 4.12421 0.531789 3.55221 0.827789 3.05621C1.13179 2.55221 1.54379 2.16021 2.06379 1.88021C2.58379 1.59221 3.17179 1.44821 3.82779 1.44821C4.45979 1.44821 5.02779 1.58421 5.53179 1.85621C6.04379 2.12021 6.44779 2.50421 6.74379 3.00821C7.03979 3.50421 7.18779 4.10021 7.18779 4.79621C7.18779 4.86821 7.18379 4.95221 7.17579 5.04821C7.16779 5.13621 7.15979 5.22021 7.15179 5.30021H1.90779V4.20821H6.16779L5.44779 4.53221C5.44779 4.19621 5.37979 3.90421 5.24379 3.65621C5.10779 3.40821 4.91979 3.21621 4.67979 3.08021C4.43979 2.93621 4.15979 2.86421 3.83979 2.86421C3.51979 2.86421 3.23579 2.93621 2.98779 3.08021C2.74779 3.21621 2.55979 3.41221 2.42379 3.66821C2.28779 3.91621 2.21979 4.21221 2.21979 4.55621V4.84421C2.21979 5.19621 2.29579 5.50821 2.44779 5.78021C2.60779 6.04421 2.82779 6.24821 3.10779 6.39221C3.39579 6.52821 3.73179 6.59621 4.11579 6.59621C4.45979 6.59621 4.75979 6.54421 5.01579 6.44021C5.27979 6.33621 5.51979 6.18021 5.73579 5.97221L6.73179 7.05221C6.43579 7.38821 6.06379 7.64821 5.61579 7.83221C5.16779 8.00821 4.65179 8.09621 4.06779 8.09621Z" fill="#777777" style="fill:#777777;fill-opacity:1;"/>
<path d="M12.3581 1.44821C12.8701 1.44821 13.3261 1.55221 13.7261 1.76021C14.1341 1.96021 14.4541 2.27221 14.6861 2.69621C14.9181 3.11221 15.0341 3.64821 15.0341 4.30421V8.00021H13.1621V4.59221C13.1621 4.07221 13.0461 3.68821 12.8141 3.44021C12.5901 3.19221 12.2701 3.06821 11.8541 3.06821C11.5581 3.06821 11.2901 3.13221 11.0501 3.26021C10.8181 3.38021 10.6341 3.56821 10.4981 3.82421C10.3701 4.08021 10.3061 4.40821 10.3061 4.80821V8.00021H8.4341V1.54421H10.2221V3.33221L9.8861 2.79221C10.1181 2.36021 10.4501 2.02821 10.8821 1.79621C11.3141 1.56421 11.8061 1.44821 12.3581 1.44821Z" fill="#777777" style="fill:#777777;fill-opacity:1;"/>
<path d="M19.371 8.09621C18.611 8.09621 18.019 7.90421 17.595 7.52021C17.171 7.12821 16.959 6.54821 16.959 5.78021V0.116211H18.831V5.75621C18.831 6.02821 18.903 6.24021 19.047 6.39221C19.191 6.53621 19.387 6.60821 19.635 6.60821C19.931 6.60821 20.183 6.52821 20.391 6.36821L20.895 7.68821C20.703 7.82421 20.471 7.92821 20.199 8.00021C19.935 8.06421 19.659 8.09621 19.371 8.09621ZM15.963 3.12821V1.68821H20.439V3.12821H15.963Z" fill="#777777" style="fill:#777777;fill-opacity:1;"/>
<path d="M24.9506 8.09621C24.2146 8.09621 23.5666 7.95221 23.0066 7.66421C22.4546 7.37621 22.0266 6.98421 21.7226 6.48821C21.4186 5.98421 21.2666 5.41221 21.2666 4.77221C21.2666 4.12421 21.4146 3.55221 21.7106 3.05621C22.0146 2.55221 22.4266 2.16021 22.9466 1.88021C23.4666 1.59221 24.0546 1.44821 24.7106 1.44821C25.3426 1.44821 25.9106 1.58421 26.4146 1.85621C26.9266 2.12021 27.3306 2.50421 27.6266 3.00821C27.9226 3.50421 28.0706 4.10021 28.0706 4.79621C28.0706 4.86821 28.0666 4.95221 28.0586 5.04821C28.0506 5.13621 28.0426 5.22021 28.0346 5.30021H22.7906V4.20821H27.0506L26.3306 4.53221C26.3306 4.19621 26.2626 3.90421 26.1266 3.65621C25.9906 3.40821 25.8026 3.21621 25.5626 3.08021C25.3226 2.93621 25.0426 2.86421 24.7226 2.86421C24.4026 2.86421 24.1186 2.93621 23.8706 3.08021C23.6306 3.21621 23.4426 3.41221 23.3066 3.66821C23.1706 3.91621 23.1026 4.21221 23.1026 4.55621V4.84421C23.1026 5.19621 23.1786 5.50821 23.3306 5.78021C23.4906 6.04421 23.7106 6.24821 23.9906 6.39221C24.2786 6.52821 24.6146 6.59621 24.9986 6.59621C25.3426 6.59621 25.6426 6.54421 25.8986 6.44021C26.1626 6.33621 26.4026 6.18021 26.6186 5.97221L27.6146 7.05221C27.3186 7.38821 26.9466 7.64821 26.4986 7.83221C26.0506 8.00821 25.5346 8.09621 24.9506 8.09621Z" fill="#777777" style="fill:#777777;fill-opacity:1;"/>
</svg>
